<svg viewBox="0 0 276 282.138" xmlns="http://www.w3.org/2000/svg" xmlns:xlink="http://www.w3.org/1999/xlink" id="Layer_1" overflow="hidden"><defs></defs><path d="M61.8 68.871C61.868 68.791 60.107 56.124 59.81 49.655 59.6133 45.3532 60.499 41.0708 62.386 37.2 66.427 30.325 76.686 31.3 81.203 33.761 88.519 37.761 87.44 47.119 85.325 57.208 84.871 59.396 85.791 62.476 85.886 63.408 85.981 64.34 85.653 66.6 85.757 68.967 86.3558 69.0378 86.9626 68.9903 87.543 68.827 88.838 68.557 105.658 50.9 123.943 39.473 142.228 28.046 142.815 25.87 150.262 25.72 157.709 25.57 159.829 32.453 160.639 33.706 163.116 37.8842 164.109 42.7768 163.456 47.59 162.48 56.13 159.301 59.384 155.096 62.151 149.112 66.084 126.547 74.988 124.941 75.603 123.335 76.218 105.132 85.822 103.56 87.859 101.988 89.896 104.724 98.411 105.922 100.901 107.122 103.411 109.463 107.474 112.399 108.474 115.335 109.474 121.57 111.008 124.861 112.067 128.152 113.126 130.62 114.067 133.399 114.058 136.178 114.049 155.529 109.089 159.983 108.341 164.437 107.593 174.738 106.249 180.999 106.428 188.579 106.77 195.962 108.952 202.51 112.785 210.11 117.114 216.131 121.069 222.724 128.994 229.317 136.919 235.624 147.433 237.857 154.694 240.09 161.939 240.137 161.994 241.186 176.265 242.219 190.523 241 189.85 242.665 191.942 244.33 194.034 250.543 191.267 255.277 193.955 260.011 196.643 262.45 199.342 262.312 206.967 262.225 211.334 262.312 213.767 260.981 216.755 259.956 219.069 258.974 221.443 257.93 223.603 256.882 225.781 250.057 233.634 246.898 235.345 243.739 237.056 229.234 244.93 223.276 247.206 217.085 249.577 210.541 249.039 199.3 249.375 188.12 249.695 142.738 249.575 137.834 249.427 132.634 249.266 93.279 248.727 87.554 248.566 81.829 248.405 71.297 248.852 67.891 247.133 64.485 245.414 65.999 244.144 66.451 242.386 67.7722 238.155 70.354 234.429 73.851 231.705 78.463 228.364 84.739 228.3 85.875 227.141 87.011 225.982 87.829 224.491 89.094 219.457 91.002 211.804 86.006 213.611 78.668 210.813 67.583 206.59 64.076 200.79 62.053 198.328 60.03 195.866 55.219 193.772 53.823 189.733 52.123 184.823 49.223 183.511 47.375 180.097 45.901 177.366 46.937 175.482 45.689 172.567 44.441 169.652 42.527 167.537 42.5 162.1 42.3973 157.245 42.8632 152.394 43.888 147.647 44.6119 145.176 45.5664 142.779 46.739 140.487 47.239 139.136 48.333 137.499 47.172 136.243 46.011 134.987 40.048 131.493 38.531 126.981 37.014 122.469 36.156 118.244 36.203 115.644 36.25 113.044 38.436 104.29 41.746 100.026 42.469 99.087 42.488 95.434 42.389 94.258 42.289 93.065 40.45 90.371 40.735 87.777 41.02 85.183 41.386 81.047 41.411 79.756 41.438 78.449 42.845 72.328 59.384 69.564 60.2146 69.4327 61.026 69.1999 61.8 68.871Z" id="Bunny" stroke="#000000" stroke-width="1.695" fill="#F2F2F2"/><text font-family="MyriadPro-Regular,Myriad Pro" font-size="24.601" transform="translate(166.155 92.069)">p</text><text font-family="MyriadPro-Regular,Myriad Pro" font-size="24.601" transform="matrix(0.583 0 0 0.583 180.153 100.261)">o</text><text font-family="MyriadPro-Regular,Myriad Pro" font-size="24.601" transform="translate(35.205 199.575)">p</text><text font-family="MyriadPro-Regular,Myriad Pro" font-size="24.601" letter-spacing="0em" transform="matrix(0.583 0 0 0.583 49.203 207.767)">i</text><text font-family="MyriadPro-It,Myriad Pro" font-size="24.601" transform="translate(93.333 232.847)"><tspan font-style="italic">S</tspan><tspan font-family="MyriadPro-Regular,Myriad Pro" x="11.464" y="0">(</tspan><tspan font-family="MyriadPro-Regular,Myriad Pro" font-size="24.6" x="18.45" y="0">p</tspan></text><text font-family="MyriadPro-Regular,Myriad Pro" font-size="24.6" letter-spacing="0em" transform="matrix(0.583 0 0 0.583 125.782 241.038)">o</text><text font-family="MyriadPro-Regular,Myriad Pro" font-size="24.6" transform="translate(133.655 232.847)">, ω</text><text font-family="MyriadPro-Regular,Myriad Pro" font-size="24.6" transform="matrix(0.583 0 0 0.583 161.034 241.038)">o</text><text font-family="MyriadPro-Regular,Myriad Pro" font-size="24.6" transform="translate(168.908 232.847)">, p</text><text font-family="MyriadPro-Regular,Myriad Pro" font-size="24.6" transform="matrix(0.583 0 0 0.583 193.211 241.038)">i</text><text font-family="MyriadPro-Regular,Myriad Pro" font-size="24.6" transform="translate(196.567 232.847)">, ω</text><text font-family="MyriadPro-Regular,Myriad Pro" font-size="24.6" letter-spacing="0em" transform="matrix(0.583 0 0 0.583 223.946 241.038)">i</text><text font-family="MyriadPro-Regular,Myriad Pro" font-size="24.6" transform="translate(227.302 232.847)">)</text><text font-family="MyriadPro-Regular,Myriad Pro" font-size="24.6" transform="translate(216.488 77.061)">ω</text><text font-family="MyriadPro-Regular,Myriad Pro" font-size="24.6" letter-spacing="0em" transform="matrix(0.583 0 0 0.583 233.56 85.253)">o</text><text font-family="MyriadPro-Regular,Myriad Pro" font-size="24.6" transform="translate(34.155 245.728)">ω</text><text font-family="MyriadPro-Regular,Myriad Pro" font-size="24.6" transform="matrix(0.583 0 0 0.583 51.227 253.92)">i</text><circle cx="61.222" cy="198.575" r="6.867"/><circle cx="191.055" cy="108.3" r="6.867"/><line x1="64.853" y1="190.447" x2="52.106" y2="218.981" stroke="#000000" stroke-width="2" stroke-linecap="square" stroke-miterlimit="10" fill="none"/><path d="M47.357 214.942 48.594 226.844 58.283 219.823 47.357 214.942Z"/><line x1="187.68" y1="110.8" x2="209.027" y2="87.974" stroke="#000000" stroke-width="2" stroke-linecap="square" stroke-miterlimit="10" fill="none"/><path d="M212.202 93.34 214.909 81.685 203.461 85.166 212.202 93.34Z"/><path d="M64.482 189.107 80.667 152.499 94.667 137.955 94.667 173.068 122 162.068 104.25 192.568 100.667 154.401 129 132.735 142.667 189.401 195.333 200.401 188 191.442 170.333 208.068 166.667 150.735 198.667 152.735 190.667 114.068" stroke="#000000" stroke-width="2" stroke-linecap="round" stroke-linejoin="round" fill="none"/></svg>